<svg version="1.1" id="Layer_1" xmlns="http://www.w3.org/2000/svg" xmlns:xlink="http://www.w3.org/1999/xlink" x="0px" y="0px"
	 width="100%" viewBox="0 0 4032 3024" enable-background="new 0 0 4032 3024" xml:space="preserve">
<path fill="#000000" opacity="1.000000" stroke="none" 
	d="
M4034.000000,1084.000000 
	C4034.000000,1732.000000 4034.000000,2379.000000 4034.000000,3026.000000 
	C2690.000000,3026.000000 1346.000000,3026.000000 2.000000,3026.000000 
	C2.000000,2018.000000 2.000000,1010.000000 2.000000,2.000001 
	C1346.000000,2.000000 2690.000000,2.000000 4034.000000,2.000000 
	C4034.000000,362.333344 4034.000000,722.666687 4034.000000,1084.000000 
M65.881721,160.621674 
	C56.085438,168.486542 54.270550,179.260223 54.275494,190.999969 
	C54.348389,363.996887 54.314293,536.993835 54.383598,709.990784 
	C54.385574,714.924622 54.867603,719.929321 55.779408,724.778015 
	C58.181599,737.552368 68.800331,746.302734 81.906410,746.310669 
	C167.238205,746.362183 252.571777,746.062866 337.900146,746.606018 
	C352.191864,746.696960 367.324280,733.111877 366.473083,718.296021 
	C365.824097,707.000183 366.300995,695.636841 366.377563,684.304260 
	C366.394592,681.782104 366.833221,679.262817 367.117004,676.336914 
	C381.159576,676.336914 394.467133,676.186035 407.769135,676.392395 
	C416.010742,676.520142 422.476532,673.401672 428.069366,667.497681 
	C434.257477,660.965210 435.722046,653.172974 435.716400,644.589783 
	C435.650635,544.591553 435.674347,444.593292 435.674316,344.595062 
	C435.674316,268.596405 435.428162,192.596268 435.887756,116.600395 
	C435.976685,101.894043 426.215302,86.063606 406.549103,85.700035 
	C399.551605,85.570663 392.549866,85.666550 385.550079,85.663315 
	C379.346375,85.660446 373.142639,85.662712 366.344238,85.662712 
	C366.344238,71.373428 365.804413,58.396385 366.485413,45.483723 
	C367.276978,30.474867 354.471619,16.130657 336.839142,16.192934 
	C252.841660,16.489603 168.842529,16.292433 84.844070,16.355175 
	C68.930939,16.367062 56.938469,26.529932 56.103439,42.192741 
	C55.200302,59.133102 55.492130,76.174904 56.083389,93.143860 
	C56.474541,104.369736 65.256966,117.229393 79.957771,118.382912 
	C84.564835,118.744415 89.160973,119.613846 93.762756,119.618561 
	C170.094666,119.696831 246.426682,119.674294 322.758667,119.674294 
	C326.344788,119.674294 329.930908,119.674294 333.743073,119.674294 
	C333.743073,294.943237 333.743073,469.369781 333.743073,643.598145 
	C274.386780,643.598145 215.615936,643.598145 156.344284,643.598145 
	C156.344284,639.259399 156.344284,635.631836 156.344284,632.004211 
	C156.344284,485.006805 156.344299,338.009430 156.344223,191.012024 
	C156.344223,188.678741 156.410080,186.343216 156.332397,184.012512 
	C155.725204,165.794144 144.132492,154.467667 125.844063,154.342926 
	C112.844894,154.254257 99.843895,154.409241 86.845169,154.292618 
	C79.691055,154.228439 73.006767,155.581558 65.881721,160.621674 
M2494.327637,558.922424 
	C2494.328369,564.588318 2494.052734,570.270264 2494.378662,575.917358 
	C2495.685791,598.549011 2508.197021,606.632324 2525.492432,607.527710 
	C2539.119629,608.233154 2552.819580,607.938660 2566.474609,607.593018 
	C2579.874268,607.253967 2590.414307,601.811035 2594.802246,588.305969 
	C2596.197998,584.010498 2596.281494,579.157410 2596.283203,574.559204 
	C2596.352295,399.595032 2596.342285,224.630875 2596.334473,49.666714 
	C2596.334473,46.670433 2596.481201,43.644382 2596.130859,40.682922 
	C2594.430176,26.306156 2583.796143,16.552599 2569.318604,16.372580 
	C2553.657715,16.177847 2537.989990,16.165071 2522.329590,16.379293 
	C2509.362793,16.556669 2498.053223,26.201822 2495.757812,38.917809 
	C2494.881104,43.772812 2494.391357,48.767612 2494.385986,53.699387 
	C2494.302490,130.683517 2494.327637,207.667786 2494.327637,284.652008 
	C2494.327637,288.169617 2494.327637,291.687195 2494.327637,295.665070 
	C2489.623535,295.665070 2486.336670,295.665100 2483.049561,295.665100 
	C2426.727783,295.665131 2370.405762,295.747803 2314.084473,295.573761 
	C2305.870117,295.548401 2299.280029,298.096130 2293.527344,303.850616 
	C2287.026367,310.354279 2284.067139,317.953552 2284.261475,327.148468 
	C2284.527344,339.705170 2284.327637,352.271667 2284.327637,365.665070 
	C2279.083496,365.665070 2274.821289,365.607239 2270.561035,365.676666 
	C2260.575439,365.839325 2250.522705,365.399139 2240.622559,366.419647 
	C2226.265625,367.899536 2216.373779,379.200592 2216.362305,393.321167 
	C2216.292725,477.970428 2216.292236,562.619812 2216.433838,647.268921 
	C2216.440674,651.457336 2217.167969,656.043335 2218.975830,659.754150 
	C2224.154297,670.381592 2232.328369,676.765625 2244.979980,676.413818 
	C2257.864502,676.055725 2270.767090,676.334717 2284.327637,676.334717 
	C2284.327637,690.371399 2284.620361,703.326172 2284.256104,716.262512 
	C2283.761719,733.840149 2298.695801,746.754578 2314.034912,746.639160 
	C2398.679688,746.002686 2483.331299,746.354309 2567.980713,746.318359 
	C2584.837158,746.311218 2596.053467,735.272156 2596.293945,718.261475 
	C2596.515137,702.601135 2596.600830,686.928101 2596.174561,671.276245 
	C2596.053467,666.821472 2594.725586,661.988892 2592.582275,658.080444 
	C2587.151611,648.178711 2578.295654,644.222046 2566.953369,644.244629 
	C2487.636719,644.402405 2408.319580,644.328064 2329.002441,644.328064 
	C2325.436523,644.328064 2321.870361,644.328064 2318.287598,644.328064 
	C2318.287598,561.883972 2318.287598,480.448853 2318.287598,398.794067 
	C2377.069092,398.794067 2435.234375,398.794067 2494.327637,398.794067 
	C2494.327637,451.813110 2494.327637,504.378540 2494.327637,558.922424 
M3982.549316,658.808533 
	C3975.917480,648.277466 3966.365234,644.184387 3953.979736,644.218750 
	C3875.992676,644.435059 3798.004639,644.328247 3720.017090,644.328247 
	C3716.435547,644.328247 3712.854004,644.328308 3708.992188,644.328308 
	C3708.992188,631.649841 3708.992188,619.881226 3708.992188,607.671692 
	C3713.292969,607.671692 3716.944336,607.671753 3720.595703,607.671753 
	C3773.920654,607.671753 3827.245361,607.690796 3880.570312,607.656738 
	C3892.181885,607.649353 3902.803955,605.367859 3911.019775,595.928345 
	C3917.322754,588.686768 3919.515137,580.350342 3919.637695,571.200745 
	C3919.783447,560.295471 3919.672119,549.386841 3919.672119,537.671753 
	C3922.770752,537.671753 3925.012207,537.671814 3927.253418,537.671753 
	C3936.585205,537.671570 3945.920166,537.828796 3955.248047,537.638306 
	C3974.341064,537.248413 3987.608154,523.733093 3987.650146,504.576416 
	C3987.727783,469.248871 3987.625732,433.920898 3987.702393,398.593323 
	C3987.723633,388.739410 3984.227783,380.695221 3977.276611,373.642120 
	C3969.826416,366.082977 3960.571533,364.605835 3950.829102,364.381012 
	C3940.625000,364.145538 3930.411377,364.328400 3919.671631,364.328400 
	C3919.671631,351.600281 3919.883545,339.985291 3919.623291,328.380951 
	C3919.194336,309.250732 3906.286865,295.749786 3887.947754,295.721710 
	C3804.627686,295.594147 3721.306885,295.808990 3637.987549,295.548767 
	C3620.680420,295.494720 3606.314697,311.959686 3607.466553,326.930481 
	C3608.409668,339.189331 3607.637451,351.578491 3607.663330,363.909851 
	C3607.706787,384.746033 3619.999268,397.568390 3640.644043,398.318848 
	C3642.973877,398.403564 3645.309570,398.334473 3647.642578,398.334473 
	C3723.297119,398.334717 3798.951904,398.334686 3874.606445,398.334686 
	C3878.118896,398.334686 3881.631104,398.334686 3885.203613,398.334686 
	C3885.203613,434.324127 3885.203613,468.856628 3885.203613,503.857117 
	C3826.268311,503.857117 3767.787598,503.857117 3708.731201,503.857117 
	C3708.588135,501.244720 3708.366211,498.996979 3708.357910,496.748474 
	C3708.319580,486.416931 3707.761719,476.044769 3708.477295,465.762878 
	C3709.545410,450.417175 3695.299072,433.307861 3677.156738,434.215118 
	C3665.188477,434.813568 3653.166016,434.316223 3641.167969,434.331116 
	C3620.535156,434.356689 3607.677979,447.220703 3607.668457,467.967529 
	C3607.641113,526.624878 3607.642334,585.282288 3607.667480,643.939636 
	C3607.676514,664.589172 3620.673584,677.642639 3641.143555,677.669067 
	C3652.687012,677.683960 3664.230469,677.671692 3676.328125,677.671692 
	C3676.328125,690.377808 3676.531982,701.990051 3676.280518,713.592407 
	C3675.888916,731.638306 3690.718994,748.700073 3709.316406,746.537659 
	C3719.181152,745.390625 3729.289551,746.334595 3739.287842,746.334595 
	C3811.609619,746.334595 3883.931885,746.398865 3956.252930,746.197815 
	C3961.365234,746.183594 3967.052490,745.300232 3971.466553,742.940063 
	C3982.262451,737.167847 3987.421143,727.301208 3987.624756,715.115417 
	C3987.836426,702.454285 3987.533936,689.784729 3987.731445,677.123108 
	C3987.827393,670.961670 3986.674316,665.265564 3982.549316,658.808533 
M2973.000000,644.328552 
	C2939.760498,644.328552 2906.520996,644.328552 2872.984619,644.328552 
	C2872.984619,631.659485 2872.984619,619.890686 2872.984619,608.051514 
	C2874.937744,607.891418 2876.258057,607.689514 2877.578125,607.688721 
	C2908.901855,607.669922 2940.225830,607.672241 2971.549561,607.671509 
	C2996.208740,607.670959 3020.867676,607.652405 3045.526855,607.676636 
	C3071.104492,607.701721 3084.244873,589.416687 3082.512695,570.415344 
	C3081.555420,559.916138 3082.341064,549.258057 3082.341064,537.671265 
	C3095.067871,537.671265 3106.965332,537.544556 3118.858643,537.701538 
	C3135.876221,537.926208 3150.985352,522.029785 3150.610352,506.080383 
	C3149.756836,469.778168 3150.374023,433.442139 3150.326416,397.119934 
	C3150.304932,380.815491 3140.250977,368.172913 3124.176758,365.834198 
	C3114.064697,364.362915 3103.681396,364.728699 3093.416748,364.349274 
	C3089.896240,364.219116 3086.366455,364.328583 3082.341064,364.328583 
	C3082.341064,351.349579 3082.386963,339.734894 3082.330811,328.120728 
	C3082.236084,308.505005 3069.470703,295.692810 3049.821289,295.682983 
	C2967.512939,295.641815 2885.204834,295.640625 2802.896484,295.684326 
	C2783.924805,295.694397 2770.822021,308.365387 2770.384521,327.285095 
	C2770.091797,339.941132 2770.079346,352.615997 2770.412842,365.270020 
	C2770.655762,374.487061 2773.838379,382.562378 2780.641602,389.338104 
	C2788.450439,397.115540 2797.944336,398.365295 2808.149902,398.359222 
	C2884.793213,398.313751 2961.436523,398.334473 3038.079834,398.334473 
	C3041.650635,398.334473 3045.221436,398.334473 3048.940918,398.334473 
	C3048.940918,434.178986 3048.940918,468.937805 3048.940918,503.622162 
	C2989.772217,503.622162 2931.324463,503.622162 2872.341309,503.622162 
	C2872.341309,500.633759 2872.363770,498.347931 2872.337402,496.062714 
	C2872.210205,485.075470 2872.743896,474.028931 2871.781006,463.114746 
	C2870.220947,445.425537 2857.451172,434.386139 2839.781250,434.335632 
	C2827.118408,434.299438 2814.453369,434.192993 2801.794434,434.415497 
	C2798.227783,434.478149 2794.434814,434.990784 2791.165283,436.325256 
	C2776.449707,442.331207 2770.374268,454.124176 2770.355957,469.402740 
	C2770.286865,526.718506 2770.328125,584.034424 2770.328613,641.350281 
	C2770.328613,642.683228 2770.253906,644.021606 2770.346924,645.348267 
	C2771.743652,665.293884 2784.853516,677.620667 2804.706299,677.669189 
	C2810.704590,677.683838 2816.702637,677.671448 2822.700928,677.671448 
	C2828.207520,677.671448 2833.713867,677.671448 2839.666504,677.671448 
	C2839.666504,691.085449 2839.638672,703.040588 2839.672607,714.995605 
	C2839.728027,734.435974 2856.086426,746.803223 2872.061523,746.665527 
	C2954.696777,745.953003 3037.341553,746.355408 3119.982910,746.317627 
	C3137.757324,746.309509 3150.116455,734.156006 3150.311523,716.503418 
	C3150.458984,703.175720 3149.528564,689.783447 3150.535156,676.530579 
	C3151.974609,657.578430 3133.645264,643.734985 3117.950928,644.017761 
	C3070.314209,644.876221 3022.652100,644.328552 2973.000000,644.328552 
M806.999878,397.674469 
	C856.994568,397.674469 906.989258,397.674500 956.983948,397.674377 
	C959.317078,397.674377 961.657349,397.792572 963.982178,397.653564 
	C982.536560,396.544281 992.463867,388.335114 994.276062,370.085449 
	C995.781006,354.929626 996.463562,339.464539 995.240051,324.319885 
	C993.496033,302.733032 982.816833,294.326202 960.918396,294.325928 
	C878.592468,294.324921 796.266602,294.316376 713.940674,294.332123 
	C694.003357,294.335938 682.369202,305.933319 682.330078,325.772736 
	C682.305298,338.348022 682.325439,350.923401 682.325439,364.325531 
	C670.585510,364.325531 659.672180,364.151520 648.768250,364.397583 
	C643.166382,364.524048 637.403625,364.705566 632.026184,366.082825 
	C621.141052,368.870728 614.146790,376.229919 612.000183,387.273071 
	C610.744873,393.731140 610.379944,400.454681 610.426514,407.053101 
	C610.508423,418.661530 611.123962,430.269806 611.679260,441.870361 
	C612.353760,455.962402 624.033203,467.351746 638.310486,467.626556 
	C650.304932,467.857452 662.307556,467.642517 674.306152,467.700287 
	C676.843018,467.712524 679.378357,468.052124 681.734131,468.227478 
	C682.011658,469.524109 682.260010,470.148529 682.262085,470.773743 
	C682.300659,482.438843 682.307068,494.104065 682.326111,505.769257 
	C682.358765,525.754272 693.015930,536.331543 713.163269,536.334534 
	C768.824890,536.342896 824.486572,536.337463 880.148193,536.337463 
	C883.705933,536.337463 887.263611,536.337463 891.028564,536.337463 
	C891.028564,572.921265 891.028564,608.371704 891.028564,644.325439 
	C886.759216,644.325439 883.115234,644.325439 879.471191,644.325439 
	C800.811646,644.325439 722.152039,644.325439 643.492493,644.325806 
	C641.159363,644.325806 638.815063,644.181274 636.495056,644.356506 
	C624.641907,645.251648 612.241333,656.473083 611.828796,668.055908 
	C611.216614,685.246399 611.027222,702.503784 611.826721,719.678284 
	C612.643066,737.213562 623.286133,746.325867 641.026855,746.329529 
	C725.685852,746.346924 810.347656,745.992126 895.001221,746.671692 
	C909.388062,746.787231 925.076050,734.718018 924.420288,717.187561 
	C924.009338,706.203918 924.298584,695.192139 924.378723,684.193665 
	C924.397034,681.679871 924.848450,679.169250 925.132568,676.337402 
	C932.914551,676.337402 939.896851,676.337402 946.879150,676.337341 
	C953.878540,676.337280 960.897278,676.006287 967.872681,676.415527 
	C978.077759,677.014160 991.459595,668.394897 994.079529,654.632507 
	C995.125916,649.135925 995.581116,643.450989 995.606689,637.848511 
	C995.748352,606.851990 995.736023,575.854187 995.614990,544.857483 
	C995.594421,539.586914 995.065613,534.278870 994.294922,529.058472 
	C992.383057,516.107788 984.685486,507.368317 971.954895,505.874481 
	C959.803345,504.448578 947.446655,504.771179 935.180115,504.325653 
	C931.683472,504.198669 928.186890,504.073395 924.344177,503.934845 
	C924.344177,490.132446 924.443848,477.498962 924.320923,464.867676 
	C924.135376,445.802277 912.669189,434.335724 893.906860,434.330780 
	C838.245239,434.316132 782.583557,434.325562 726.921936,434.325562 
	C723.363831,434.325562 719.805725,434.325531 716.372131,434.325531 
	C716.372131,421.480469 716.372131,409.712799 716.372131,397.674469 
	C746.379028,397.674469 775.689392,397.674469 806.999878,397.674469 
M1829.673828,618.993958 
	C1829.673828,546.021118 1829.673828,473.048279 1829.673584,400.075439 
	C1829.673584,397.742950 1829.785034,395.403900 1829.650757,393.079071 
	C1828.792114,378.209106 1820.227051,368.295929 1805.747681,365.668335 
	C1801.543945,364.905518 1797.234009,364.461395 1792.963623,364.385223 
	C1782.747437,364.202942 1772.525757,364.326324 1761.673706,364.326324 
	C1761.673706,351.714539 1761.699341,340.119080 1761.668335,328.523712 
	C1761.605347,304.950623 1746.729614,293.933716 1727.130249,294.074219 
	C1644.164917,294.668915 1561.192871,294.313934 1478.223267,294.336548 
	C1461.188965,294.341217 1448.621216,305.346771 1447.908447,322.041504 
	C1447.226929,338.004639 1447.230347,354.042725 1447.920044,370.005157 
	C1448.538452,384.317352 1457.719482,393.759369 1471.989624,396.311340 
	C1476.519897,397.121490 1481.173462,397.613251 1485.771240,397.617920 
	C1562.743042,397.696014 1639.714844,397.673676 1716.686646,397.673676 
	C1720.197754,397.673676 1723.708862,397.673676 1727.123535,397.673676 
	C1727.123535,480.616394 1727.123535,562.100708 1727.123535,643.763672 
	C1668.473145,643.763672 1610.357300,643.763672 1551.673828,643.763672 
	C1551.673828,639.930603 1551.673828,636.654602 1551.673828,633.378601 
	C1551.673828,592.060425 1551.673828,550.742188 1551.673828,509.423981 
	C1551.673828,494.429474 1551.790771,479.433807 1551.642700,464.440765 
	C1551.472778,447.217499 1539.928589,435.731506 1522.909424,435.674774 
	C1506.915405,435.621490 1490.920166,435.551941 1474.927368,435.699524 
	C1462.339966,435.815643 1453.387085,442.249512 1449.645264,454.347076 
	C1448.205566,459.002075 1447.754395,464.122009 1447.737915,469.033051 
	C1447.595947,511.350403 1447.656372,553.668457 1447.656494,595.986267 
	C1447.656494,612.980042 1447.696167,629.973938 1447.639160,646.967529 
	C1447.613770,654.540283 1449.376343,661.392456 1454.548950,667.205017 
	C1460.603027,674.008179 1467.815918,677.882935 1477.182495,677.728821 
	C1490.400879,677.511230 1503.625488,677.673706 1517.656494,677.673706 
	C1517.656494,681.964417 1517.655396,685.221619 1517.656616,688.478821 
	C1517.660278,698.141907 1517.316772,707.820557 1517.745605,717.464722 
	C1518.510986,734.677490 1529.765381,746.275269 1545.695435,746.298706 
	C1608.338989,746.390991 1670.984619,746.097290 1733.625000,746.553650 
	C1745.090820,746.637207 1759.879395,734.400024 1760.256104,723.943665 
	C1760.697632,711.679810 1761.200439,699.418213 1761.672607,687.155457 
	C1761.807129,683.661438 1761.927490,680.166931 1762.066406,676.336609 
	C1775.206421,676.336609 1787.237061,675.533752 1799.117554,676.527649 
	C1816.293335,677.964600 1829.505005,664.187805 1829.661499,645.980469 
	C1829.733032,637.650818 1829.673828,629.320007 1829.673828,618.993958 
M1157.054443,643.662170 
	C1149.144165,643.662170 1141.233765,643.662170 1132.897217,643.662170 
	C1132.897217,561.238647 1132.897217,479.803253 1132.897217,397.674866 
	C1136.726196,397.674866 1140.006470,397.674866 1143.286743,397.674866 
	C1220.938843,397.674866 1298.590820,397.674896 1376.242920,397.674622 
	C1378.575806,397.674591 1380.927612,397.863434 1383.238525,397.636932 
	C1397.154175,396.273285 1409.570435,391.316742 1410.346802,373.163483 
	C1411.070312,356.246368 1412.421143,339.214478 1411.232056,322.393127 
	C1409.753906,301.483063 1400.416626,294.325531 1379.211914,294.325378 
	C1296.560791,294.324799 1213.909668,294.325104 1131.258545,294.325134 
	C1129.258911,294.325134 1127.257446,294.267609 1125.260132,294.335022 
	C1111.579712,294.796661 1101.243164,303.784607 1099.749023,317.377411 
	C1098.738281,326.572083 1098.656128,335.877228 1098.362305,345.139404 
	C1098.165283,351.351746 1098.324951,357.575439 1098.324951,364.325134 
	C1085.285645,364.325134 1073.326904,363.936310 1061.412231,364.492065 
	C1055.609863,364.762695 1049.362915,365.728027 1044.240479,368.252350 
	C1033.068237,373.757965 1030.304443,384.292358 1030.310791,395.918121 
	C1030.342041,453.240662 1030.324829,510.563202 1030.324829,567.885742 
	C1030.324829,593.547607 1030.221558,619.210083 1030.386353,644.870911 
	C1030.437500,652.826660 1031.107666,660.640808 1037.332642,666.956238 
	C1043.347900,673.058899 1050.393677,675.720032 1058.760010,675.687927 
	C1071.668579,675.638306 1084.577271,675.674866 1098.324951,675.674866 
	C1098.324951,683.727783 1098.185303,690.975464 1098.364014,698.215332 
	C1098.543701,705.490295 1098.981323,712.760986 1099.409668,720.027344 
	C1100.364380,736.224304 1110.128174,745.595154 1126.261108,745.656006 
	C1146.923584,745.733948 1167.586548,745.674927 1188.249390,745.674927 
	C1253.570435,745.674927 1318.891479,745.694214 1384.212524,745.660950 
	C1399.866333,745.652954 1408.983276,738.298584 1410.164917,722.918274 
	C1411.435547,706.380920 1411.453979,689.730835 1411.520020,673.127930 
	C1411.539429,668.268982 1410.823853,662.940002 1408.760498,658.633667 
	C1403.928467,648.549683 1395.744385,643.523315 1383.993774,643.556030 
	C1309.008423,643.764648 1234.022217,643.662170 1157.054443,643.662170 
M3464.806152,467.675934 
	C3467.804688,467.675903 3470.803467,467.677338 3473.802002,467.675568 
	C3484.722656,467.669128 3492.721680,462.814362 3498.471680,453.538605 
	C3501.628906,448.445374 3502.341064,443.048431 3502.343506,437.348328 
	C3502.348633,424.433960 3502.345215,411.519592 3502.345215,398.124023 
	C3506.122803,397.948029 3509.041992,397.711456 3511.962402,397.694702 
	C3520.960449,397.643066 3529.965576,397.898407 3538.955811,397.628448 
	C3557.373779,397.075409 3569.183350,386.858215 3569.982910,369.391846 
	C3570.728027,353.116791 3570.573486,336.737457 3569.667969,320.467865 
	C3568.785156,304.606812 3557.163086,294.477875 3541.357666,294.349518 
	C3526.694824,294.230438 3512.029297,294.227966 3497.366455,294.351959 
	C3483.431641,294.469757 3473.307129,302.151459 3469.673096,315.556793 
	C3468.651855,319.324554 3468.432373,323.389740 3468.381348,327.325500 
	C3468.223389,339.517181 3468.323730,351.712189 3468.323730,364.324097 
	C3455.466797,364.324097 3443.842041,364.248596 3432.218994,364.352386 
	C3425.223145,364.414856 3418.210693,364.883087 3412.201172,369.044678 
	C3403.152832,375.310852 3398.112793,383.724274 3398.280029,395.069244 
	C3398.469971,407.948059 3398.323730,420.831848 3398.323730,433.656952 
	C3385.815674,433.656952 3374.375000,433.656952 3362.345459,433.656952 
	C3362.345459,420.053772 3362.422363,407.107910 3362.325195,394.163330 
	C3362.208984,378.635406 3353.824707,367.964325 3338.445801,365.858368 
	C3327.328125,364.335907 3315.945068,364.721649 3304.677246,364.346619 
	C3300.484619,364.207062 3296.283447,364.324066 3291.675781,364.324066 
	C3291.675781,349.798279 3291.905029,336.503052 3291.617188,323.219055 
	C3291.263428,306.880310 3278.508301,294.466644 3262.240479,294.347443 
	C3247.244385,294.237549 3232.246094,294.258942 3217.249268,294.341370 
	C3200.368896,294.434174 3188.084229,306.107025 3187.727295,322.860535 
	C3187.400635,338.183990 3187.466309,353.522919 3187.712646,368.849365 
	C3187.938721,382.932343 3196.633545,393.343506 3210.655762,396.208069 
	C3216.118408,397.324036 3221.823975,397.498871 3227.429199,397.615692 
	C3237.610840,397.827942 3247.799805,397.675934 3258.324463,397.675934 
	C3258.324463,411.951477 3258.077881,424.923950 3258.383789,437.883362 
	C3258.814697,456.130219 3270.586670,467.551636 3288.594238,467.669281 
	C3294.926025,467.710663 3301.258545,467.675934 3307.590576,467.675934 
	C3314.112549,467.675934 3320.634277,467.675934 3327.127441,467.675934 
	C3327.127441,503.898163 3327.127441,538.734192 3327.127441,574.324036 
	C3314.340576,574.324036 3302.039795,574.872864 3289.808350,574.186096 
	C3274.270508,573.313599 3258.906250,585.545410 3258.363281,604.463989 
	C3258.134033,612.455872 3258.323730,620.459839 3258.323486,628.458313 
	C3258.323242,633.995178 3258.323486,639.532104 3258.323486,644.195801 
	C3256.777832,645.187317 3256.505127,645.515198 3256.230713,645.516541 
	C3242.567871,645.582458 3228.882812,646.120544 3215.248047,645.524292 
	C3200.875977,644.895813 3188.182373,657.994629 3187.915771,670.599060 
	C3187.556885,687.584595 3187.271973,704.600342 3187.892334,721.568909 
	C3188.387207,735.115723 3200.671143,748.455261 3216.447266,747.814819 
	C3232.085205,747.180115 3247.769287,747.625183 3263.432617,747.694031 
	C3273.638428,747.738953 3281.799316,743.574890 3286.429932,734.663391 
	C3289.230957,729.272522 3291.096191,722.887878 3291.448486,716.837158 
	C3292.195068,704.009827 3291.676270,691.108887 3291.676270,677.675964 
	C3305.056152,677.675964 3317.334717,677.473267 3329.604248,677.723511 
	C3347.917725,678.096924 3364.075195,665.089722 3362.523682,644.917358 
	C3361.562988,632.427673 3362.345459,619.803955 3362.345459,606.941345 
	C3374.867676,606.941345 3386.317139,606.941345 3398.323730,606.941345 
	C3398.323730,620.835876 3398.386963,634.136108 3398.301270,647.435303 
	C3398.244141,656.290955 3401.654297,663.456604 3407.991211,669.541077 
	C3414.730957,676.013123 3423.068115,677.514099 3431.826172,677.635010 
	C3443.727539,677.799316 3455.632568,677.675964 3468.084229,677.675964 
	C3468.190430,679.775330 3468.307129,681.031738 3468.308838,682.288269 
	C3468.325195,693.952698 3468.185547,705.619141 3468.355713,717.281067 
	C3468.619141,735.350281 3481.788818,749.025818 3498.995117,747.866516 
	C3512.928955,746.927673 3526.977295,747.749023 3540.973877,747.656677 
	C3556.802734,747.552185 3568.271484,738.677734 3569.417725,722.921448 
	C3570.717773,705.048035 3570.395996,686.972900 3569.489258,669.050781 
	C3568.833008,656.079651 3556.395508,644.257446 3542.245117,645.493835 
	C3532.322754,646.360779 3522.263428,645.682678 3512.265381,645.648438 
	C3509.091309,645.637573 3505.917725,645.478027 3502.345459,645.375000 
	C3502.345459,631.142822 3502.428711,618.169006 3502.325439,605.196777 
	C3502.173584,586.059570 3490.262695,574.356018 3471.048096,574.327576 
	C3458.157227,574.308533 3445.266357,574.323975 3432.322754,574.323975 
	C3432.322754,538.254150 3432.322754,503.162842 3432.322754,467.675934 
	C3442.928955,467.675934 3452.894043,467.675934 3464.806152,467.675934 
M1970.343994,531.000122 
	C1970.343994,510.111755 1970.343994,489.223419 1970.343994,467.674103 
	C1984.397827,467.674103 1997.347778,467.720215 2010.297241,467.662842 
	C2028.036865,467.584290 2039.715942,456.437164 2040.276489,438.639069 
	C2040.622559,427.651917 2040.306519,416.644806 2040.371338,405.647156 
	C2040.386230,403.113953 2040.744019,400.582733 2040.973755,397.674103 
	C2045.029297,397.674103 2048.347656,397.674103 2051.666016,397.674103 
	C2080.994141,397.674133 2110.322754,397.750000 2139.650146,397.607544 
	C2145.250977,397.580353 2150.905518,397.042084 2156.434326,396.128540 
	C2168.134033,394.195404 2177.455811,385.458649 2178.092285,373.389374 
	C2179.049316,355.237732 2179.238281,336.940308 2178.062500,318.814606 
	C2177.112549,304.168610 2165.055420,294.442993 2150.187988,294.380585 
	C2111.529053,294.218262 2072.868164,294.223389 2034.209351,294.404968 
	C2025.489746,294.445953 2018.492676,298.568970 2012.857422,305.348694 
	C2007.091431,312.285889 2006.684326,320.586578 2006.419800,328.815063 
	C2006.048218,340.375092 2006.325806,351.955933 2006.325806,363.761475 
	C1993.996094,363.761475 1982.548950,363.761475 1970.343872,363.761475 
	C1970.343872,349.949493 1969.915405,336.669983 1970.456177,323.430023 
	C1971.080444,308.148285 1957.119019,293.970490 1941.414917,294.263702 
	C1926.089722,294.549866 1910.752197,294.165192 1895.426392,294.438354 
	C1891.564941,294.507172 1887.424805,295.303192 1883.933960,296.902496 
	C1870.915771,302.866455 1866.261108,313.745483 1866.271118,327.585083 
	C1866.363892,456.228607 1866.325684,584.872192 1866.326050,713.515808 
	C1866.326050,715.182190 1866.213013,716.858276 1866.350830,718.513428 
	C1867.937500,737.574951 1882.572998,747.500671 1896.362671,746.577698 
	C1911.956665,745.533936 1927.675903,746.205688 1943.337402,746.395935 
	C1950.444946,746.482178 1956.183960,743.933777 1961.342407,739.251221 
	C1967.981934,733.224243 1970.429321,725.810608 1970.411011,716.967102 
	C1970.284058,655.645020 1970.343994,594.322571 1970.343994,531.000122 
M505.280670,746.335266 
	C518.936218,746.335205 532.591980,746.384888 546.247192,746.321655 
	C560.845703,746.254089 571.518311,737.138184 573.668091,722.747253 
	C574.254517,718.821411 574.315369,714.790466 574.316345,710.807617 
	C574.347839,583.911072 574.345215,457.014557 574.325867,330.118042 
	C574.325378,326.795990 574.161987,323.468475 573.936279,320.152924 
	C573.054932,307.207489 560.932373,293.604218 545.097473,294.208801 
	C530.464050,294.767517 515.790405,294.193665 501.139374,294.424774 
	C497.588196,294.480743 493.764954,295.102936 490.566498,296.560974 
	C478.122528,302.233551 472.330383,312.335144 472.328796,325.889313 
	C472.325470,354.532623 472.327759,383.175934 472.327759,411.819244 
	C472.327759,512.403870 472.487762,612.989014 472.182251,713.572754 
	C472.126343,731.985962 484.534241,749.110535 505.280670,746.335266 
M572.516602,173.337753 
	C567.401855,160.201218 558.263916,153.220718 543.696899,153.589432 
	C530.064880,153.934448 516.384338,154.256927 502.785522,153.501633 
	C488.300690,152.697144 473.339691,163.637100 472.472534,182.451782 
	C471.783997,197.391602 471.968628,212.399597 472.424713,227.357224 
	C473.002319,246.300003 488.539185,257.796967 503.308838,256.588287 
	C517.519836,255.425369 531.953247,255.575760 546.191162,256.561401 
	C559.143372,257.458069 573.564636,243.839096 573.715454,231.615524 
	C573.948853,212.697922 573.445679,193.771225 572.516602,173.337753 
M2710.176514,746.332397 
	C2725.204590,744.178833 2734.161133,734.443848 2734.303955,719.664734 
	C2734.461426,703.334351 2734.484619,686.999512 2734.295166,670.669800 
	C2734.134521,656.821289 2727.326416,647.512146 2714.064209,646.695190 
	C2694.834473,645.510620 2675.416260,645.416565 2656.198242,646.681519 
	C2642.648682,647.573242 2633.848877,659.198120 2633.700195,672.832336 
	C2633.529541,688.495850 2633.458740,704.165894 2633.718750,719.826904 
	C2633.968262,734.847046 2645.456787,746.166321 2660.345947,746.300659 
	C2676.343262,746.445007 2692.343018,746.333374 2710.176514,746.332397 
z"/>
<path fill="#FDFDFD" opacity="1.000000" stroke="none" 
	d="
M66.437202,160.115631 
	C73.006767,155.581558 79.691055,154.228439 86.845169,154.292618 
	C99.843895,154.409241 112.844894,154.254257 125.844063,154.342926 
	C144.132492,154.467667 155.725204,165.794144 156.332397,184.012512 
	C156.410080,186.343216 156.344223,188.678741 156.344223,191.012024 
	C156.344299,338.009430 156.344284,485.006805 156.344284,632.004211 
	C156.344284,635.631836 156.344284,639.259399 156.344284,643.598145 
	C215.615936,643.598145 274.386780,643.598145 333.743073,643.598145 
	C333.743073,469.369781 333.743073,294.943237 333.743073,119.674294 
	C329.930908,119.674294 326.344788,119.674294 322.758667,119.674294 
	C246.426682,119.674294 170.094666,119.696831 93.762756,119.618561 
	C89.160973,119.613846 84.564835,118.744415 79.957771,118.382912 
	C65.256966,117.229393 56.474541,104.369736 56.083389,93.143860 
	C55.492130,76.174904 55.200302,59.133102 56.103439,42.192741 
	C56.938469,26.529932 68.930939,16.367062 84.844070,16.355175 
	C168.842529,16.292433 252.841660,16.489603 336.839142,16.192934 
	C354.471619,16.130657 367.276978,30.474867 366.485413,45.483723 
	C365.804413,58.396385 366.344238,71.373428 366.344238,85.662712 
	C373.142639,85.662712 379.346375,85.660446 385.550079,85.663315 
	C392.549866,85.666550 399.551605,85.570663 406.549103,85.700035 
	C426.215302,86.063606 435.976685,101.894043 435.887756,116.600395 
	C435.428162,192.596268 435.674316,268.596405 435.674316,344.595062 
	C435.674347,444.593292 435.650635,544.591553 435.716400,644.589783 
	C435.722046,653.172974 434.257477,660.965210 428.069366,667.497681 
	C422.476532,673.401672 416.010742,676.520142 407.769135,676.392395 
	C394.467133,676.186035 381.159576,676.336914 367.117004,676.336914 
	C366.833221,679.262817 366.394592,681.782104 366.377563,684.304260 
	C366.300995,695.636841 365.824097,707.000183 366.473083,718.296021 
	C367.324280,733.111877 352.191864,746.696960 337.900146,746.606018 
	C252.571777,746.062866 167.238205,746.362183 81.906410,746.310669 
	C68.800331,746.302734 58.181599,737.552368 55.779408,724.778015 
	C54.867603,719.929321 54.385574,714.924622 54.383598,709.990784 
	C54.314293,536.993835 54.348389,363.996887 54.275494,190.999969 
	C54.270550,179.260223 56.085438,168.486542 66.437202,160.115631 
z"/>
<path fill="#FEFEFE" opacity="1.000000" stroke="none" 
	d="
M2494.327637,557.933228 
	C2494.327637,504.378540 2494.327637,451.813110 2494.327637,398.794067 
	C2435.234375,398.794067 2377.069092,398.794067 2318.287598,398.794067 
	C2318.287598,480.448853 2318.287598,561.883972 2318.287598,644.328064 
	C2321.870361,644.328064 2325.436523,644.328064 2329.002441,644.328064 
	C2408.319580,644.328064 2487.636719,644.402405 2566.953369,644.244629 
	C2578.295654,644.222046 2587.151611,648.178711 2592.582275,658.080444 
	C2594.725586,661.988892 2596.053467,666.821472 2596.174561,671.276245 
	C2596.600830,686.928101 2596.515137,702.601135 2596.293945,718.261475 
	C2596.053467,735.272156 2584.837158,746.311218 2567.980713,746.318359 
	C2483.331299,746.354309 2398.679688,746.002686 2314.034912,746.639160 
	C2298.695801,746.754578 2283.761719,733.840149 2284.256104,716.262512 
	C2284.620361,703.326172 2284.327637,690.371399 2284.327637,676.334717 
	C2270.767090,676.334717 2257.864502,676.055725 2244.979980,676.413818 
	C2232.328369,676.765625 2224.154297,670.381592 2218.975830,659.754150 
	C2217.167969,656.043335 2216.440674,651.457336 2216.433838,647.268921 
	C2216.292236,562.619812 2216.292725,477.970428 2216.362305,393.321167 
	C2216.373779,379.200592 2226.265625,367.899536 2240.622559,366.419647 
	C2250.522705,365.399139 2260.575439,365.839325 2270.561035,365.676666 
	C2274.821289,365.607239 2279.083496,365.665070 2284.327637,365.665070 
	C2284.327637,352.271667 2284.527344,339.705170 2284.261475,327.148468 
	C2284.067139,317.953552 2287.026367,310.354279 2293.527344,303.850616 
	C2299.280029,298.096130 2305.870117,295.548401 2314.084473,295.573761 
	C2370.405762,295.747803 2426.727783,295.665131 2483.049561,295.665100 
	C2486.336670,295.665100 2489.623535,295.665070 2494.327637,295.665070 
	C2494.327637,291.687195 2494.327637,288.169617 2494.327637,284.652008 
	C2494.327637,207.667786 2494.302490,130.683517 2494.385986,53.699387 
	C2494.391357,48.767612 2494.881104,43.772812 2495.757812,38.917809 
	C2498.053223,26.201822 2509.362793,16.556669 2522.329590,16.379293 
	C2537.989990,16.165071 2553.657715,16.177847 2569.318604,16.372580 
	C2583.796143,16.552599 2594.430176,26.306156 2596.130859,40.682922 
	C2596.481201,43.644382 2596.334473,46.670433 2596.334473,49.666714 
	C2596.342285,224.630875 2596.352295,399.595032 2596.283203,574.559204 
	C2596.281494,579.157410 2596.197998,584.010498 2594.802246,588.305969 
	C2590.414307,601.811035 2579.874268,607.253967 2566.474609,607.593018 
	C2552.819580,607.938660 2539.119629,608.233154 2525.492432,607.527710 
	C2508.197021,606.632324 2495.685791,598.549011 2494.378662,575.917358 
	C2494.052734,570.270264 2494.328369,564.588318 2494.327637,557.933228 
z"/>
<path fill="#FEFEFE" opacity="1.000000" stroke="none" 
	d="
M3983.030273,659.396240 
	C3986.674316,665.265564 3987.827393,670.961670 3987.731445,677.123108 
	C3987.533936,689.784729 3987.836426,702.454285 3987.624756,715.115417 
	C3987.421143,727.301208 3982.262451,737.167847 3971.466553,742.940063 
	C3967.052490,745.300232 3961.365234,746.183594 3956.252930,746.197815 
	C3883.931885,746.398865 3811.609619,746.334595 3739.287842,746.334595 
	C3729.289551,746.334595 3719.181152,745.390625 3709.316406,746.537659 
	C3690.718994,748.700073 3675.888916,731.638306 3676.280518,713.592407 
	C3676.531982,701.990051 3676.328125,690.377808 3676.328125,677.671692 
	C3664.230469,677.671692 3652.687012,677.683960 3641.143555,677.669067 
	C3620.673584,677.642639 3607.676514,664.589172 3607.667480,643.939636 
	C3607.642334,585.282288 3607.641113,526.624878 3607.668457,467.967529 
	C3607.677979,447.220703 3620.535156,434.356689 3641.167969,434.331116 
	C3653.166016,434.316223 3665.188477,434.813568 3677.156738,434.215118 
	C3695.299072,433.307861 3709.545410,450.417175 3708.477295,465.762878 
	C3707.761719,476.044769 3708.319580,486.416931 3708.357910,496.748474 
	C3708.366211,498.996979 3708.588135,501.244720 3708.731201,503.857117 
	C3767.787598,503.857117 3826.268311,503.857117 3885.203613,503.857117 
	C3885.203613,468.856628 3885.203613,434.324127 3885.203613,398.334686 
	C3881.631104,398.334686 3878.118896,398.334686 3874.606445,398.334686 
	C3798.951904,398.334686 3723.297119,398.334717 3647.642578,398.334473 
	C3645.309570,398.334473 3642.973877,398.403564 3640.644043,398.318848 
	C3619.999268,397.568390 3607.706787,384.746033 3607.663330,363.909851 
	C3607.637451,351.578491 3608.409668,339.189331 3607.466553,326.930481 
	C3606.314697,311.959686 3620.680420,295.494720 3637.987549,295.548767 
	C3721.306885,295.808990 3804.627686,295.594147 3887.947754,295.721710 
	C3906.286865,295.749786 3919.194336,309.250732 3919.623291,328.380951 
	C3919.883545,339.985291 3919.671631,351.600281 3919.671631,364.328400 
	C3930.411377,364.328400 3940.625000,364.145538 3950.829102,364.381012 
	C3960.571533,364.605835 3969.826416,366.082977 3977.276611,373.642120 
	C3984.227783,380.695221 3987.723633,388.739410 3987.702393,398.593323 
	C3987.625732,433.920898 3987.727783,469.248871 3987.650146,504.576416 
	C3987.608154,523.733093 3974.341064,537.248413 3955.248047,537.638306 
	C3945.920166,537.828796 3936.585205,537.671570 3927.253418,537.671753 
	C3925.012207,537.671814 3922.770752,537.671753 3919.672119,537.671753 
	C3919.672119,549.386841 3919.783447,560.295471 3919.637695,571.200745 
	C3919.515137,580.350342 3917.322754,588.686768 3911.019775,595.928345 
	C3902.803955,605.367859 3892.181885,607.649353 3880.570312,607.656738 
	C3827.245361,607.690796 3773.920654,607.671753 3720.595703,607.671753 
	C3716.944336,607.671753 3713.292969,607.671692 3708.992188,607.671692 
	C3708.992188,619.881226 3708.992188,631.649841 3708.992188,644.328308 
	C3712.854004,644.328308 3716.435547,644.328247 3720.017090,644.328247 
	C3798.004639,644.328247 3875.992676,644.435059 3953.979736,644.218750 
	C3966.365234,644.184387 3975.917480,648.277466 3983.030273,659.396240 
z"/>
<path fill="#FEFEFE" opacity="1.000000" stroke="none" 
	d="
M2974.000000,644.328552 
	C3022.652100,644.328552 3070.314209,644.876221 3117.950928,644.017761 
	C3133.645264,643.734985 3151.974609,657.578430 3150.535156,676.530579 
	C3149.528564,689.783447 3150.458984,703.175720 3150.311523,716.503418 
	C3150.116455,734.156006 3137.757324,746.309509 3119.982910,746.317627 
	C3037.341553,746.355408 2954.696777,745.953003 2872.061523,746.665527 
	C2856.086426,746.803223 2839.728027,734.435974 2839.672607,714.995605 
	C2839.638672,703.040588 2839.666504,691.085449 2839.666504,677.671448 
	C2833.713867,677.671448 2828.207520,677.671448 2822.700928,677.671448 
	C2816.702637,677.671448 2810.704590,677.683838 2804.706299,677.669189 
	C2784.853516,677.620667 2771.743652,665.293884 2770.346924,645.348267 
	C2770.253906,644.021606 2770.328613,642.683228 2770.328613,641.350281 
	C2770.328125,584.034424 2770.286865,526.718506 2770.355957,469.402740 
	C2770.374268,454.124176 2776.449707,442.331207 2791.165283,436.325256 
	C2794.434814,434.990784 2798.227783,434.478149 2801.794434,434.415497 
	C2814.453369,434.192993 2827.118408,434.299438 2839.781250,434.335632 
	C2857.451172,434.386139 2870.220947,445.425537 2871.781006,463.114746 
	C2872.743896,474.028931 2872.210205,485.075470 2872.337402,496.062714 
	C2872.363770,498.347931 2872.341309,500.633759 2872.341309,503.622162 
	C2931.324463,503.622162 2989.772217,503.622162 3048.940918,503.622162 
	C3048.940918,468.937805 3048.940918,434.178986 3048.940918,398.334473 
	C3045.221436,398.334473 3041.650635,398.334473 3038.079834,398.334473 
	C2961.436523,398.334473 2884.793213,398.313751 2808.149902,398.359222 
	C2797.944336,398.365295 2788.450439,397.115540 2780.641602,389.338104 
	C2773.838379,382.562378 2770.655762,374.487061 2770.412842,365.270020 
	C2770.079346,352.615997 2770.091797,339.941132 2770.384521,327.285095 
	C2770.822021,308.365387 2783.924805,295.694397 2802.896484,295.684326 
	C2885.204834,295.640625 2967.512939,295.641815 3049.821289,295.682983 
	C3069.470703,295.692810 3082.236084,308.505005 3082.330811,328.120728 
	C3082.386963,339.734894 3082.341064,351.349579 3082.341064,364.328583 
	C3086.366455,364.328583 3089.896240,364.219116 3093.416748,364.349274 
	C3103.681396,364.728699 3114.064697,364.362915 3124.176758,365.834198 
	C3140.250977,368.172913 3150.304932,380.815491 3150.326416,397.119934 
	C3150.374023,433.442139 3149.756836,469.778168 3150.610352,506.080383 
	C3150.985352,522.029785 3135.876221,537.926208 3118.858643,537.701538 
	C3106.965332,537.544556 3095.067871,537.671265 3082.341064,537.671265 
	C3082.341064,549.258057 3081.555420,559.916138 3082.512695,570.415344 
	C3084.244873,589.416687 3071.104492,607.701721 3045.526855,607.676636 
	C3020.867676,607.652405 2996.208740,607.670959 2971.549561,607.671509 
	C2940.225830,607.672241 2908.901855,607.669922 2877.578125,607.688721 
	C2876.258057,607.689514 2874.937744,607.891418 2872.984619,608.051514 
	C2872.984619,619.890686 2872.984619,631.659485 2872.984619,644.328552 
	C2906.520996,644.328552 2939.760498,644.328552 2974.000000,644.328552 
z"/>
<path fill="#FDFDFD" opacity="1.000000" stroke="none" 
	d="
M805.999817,397.674469 
	C775.689392,397.674469 746.379028,397.674469 716.372131,397.674469 
	C716.372131,409.712799 716.372131,421.480469 716.372131,434.325531 
	C719.805725,434.325531 723.363831,434.325562 726.921936,434.325562 
	C782.583557,434.325562 838.245239,434.316132 893.906860,434.330780 
	C912.669189,434.335724 924.135376,445.802277 924.320923,464.867676 
	C924.443848,477.498962 924.344177,490.132446 924.344177,503.934845 
	C928.186890,504.073395 931.683472,504.198669 935.180115,504.325653 
	C947.446655,504.771179 959.803345,504.448578 971.954895,505.874481 
	C984.685486,507.368317 992.383057,516.107788 994.294922,529.058472 
	C995.065613,534.278870 995.594421,539.586914 995.614990,544.857483 
	C995.736023,575.854187 995.748352,606.851990 995.606689,637.848511 
	C995.581116,643.450989 995.125916,649.135925 994.079529,654.632507 
	C991.459595,668.394897 978.077759,677.014160 967.872681,676.415527 
	C960.897278,676.006287 953.878540,676.337280 946.879150,676.337341 
	C939.896851,676.337402 932.914551,676.337402 925.132568,676.337402 
	C924.848450,679.169250 924.397034,681.679871 924.378723,684.193665 
	C924.298584,695.192139 924.009338,706.203918 924.420288,717.187561 
	C925.076050,734.718018 909.388062,746.787231 895.001221,746.671692 
	C810.347656,745.992126 725.685852,746.346924 641.026855,746.329529 
	C623.286133,746.325867 612.643066,737.213562 611.826721,719.678284 
	C611.027222,702.503784 611.216614,685.246399 611.828796,668.055908 
	C612.241333,656.473083 624.641907,645.251648 636.495056,644.356506 
	C638.815063,644.181274 641.159363,644.325806 643.492493,644.325806 
	C722.152039,644.325439 800.811646,644.325439 879.471191,644.325439 
	C883.115234,644.325439 886.759216,644.325439 891.028564,644.325439 
	C891.028564,608.371704 891.028564,572.921265 891.028564,536.337463 
	C887.263611,536.337463 883.705933,536.337463 880.148193,536.337463 
	C824.486572,536.337463 768.824890,536.342896 713.163269,536.334534 
	C693.015930,536.331543 682.358765,525.754272 682.326111,505.769257 
	C682.307068,494.104065 682.300659,482.438843 682.262085,470.773743 
	C682.260010,470.148529 682.011658,469.524109 681.734131,468.227478 
	C679.378357,468.052124 676.843018,467.712524 674.306152,467.700287 
	C662.307556,467.642517 650.304932,467.857452 638.310486,467.626556 
	C624.033203,467.351746 612.353760,455.962402 611.679260,441.870361 
	C611.123962,430.269806 610.508423,418.661530 610.426514,407.053101 
	C610.379944,400.454681 610.744873,393.731140 612.000183,387.273071 
	C614.146790,376.229919 621.141052,368.870728 632.026184,366.082825 
	C637.403625,364.705566 643.166382,364.524048 648.768250,364.397583 
	C659.672180,364.151520 670.585510,364.325531 682.325439,364.325531 
	C682.325439,350.923401 682.305298,338.348022 682.330078,325.772736 
	C682.369202,305.933319 694.003357,294.335938 713.940674,294.332123 
	C796.266602,294.316376 878.592468,294.324921 960.918396,294.325928 
	C982.816833,294.326202 993.496033,302.733032 995.240051,324.319885 
	C996.463562,339.464539 995.781006,354.929626 994.276062,370.085449 
	C992.463867,388.335114 982.536560,396.544281 963.982178,397.653564 
	C961.657349,397.792572 959.317078,397.674377 956.983948,397.674377 
	C906.989258,397.674500 856.994568,397.674469 805.999817,397.674469 
z"/>
<path fill="#FDFDFD" opacity="1.000000" stroke="none" 
	d="
M1829.673828,619.991821 
	C1829.673828,629.320007 1829.733032,637.650818 1829.661499,645.980469 
	C1829.505005,664.187805 1816.293335,677.964600 1799.117554,676.527649 
	C1787.237061,675.533752 1775.206421,676.336609 1762.066406,676.336609 
	C1761.927490,680.166931 1761.807129,683.661438 1761.672607,687.155457 
	C1761.200439,699.418213 1760.697632,711.679810 1760.256104,723.943665 
	C1759.879395,734.400024 1745.090820,746.637207 1733.625000,746.553650 
	C1670.984619,746.097290 1608.338989,746.390991 1545.695435,746.298706 
	C1529.765381,746.275269 1518.510986,734.677490 1517.745605,717.464722 
	C1517.316772,707.820557 1517.660278,698.141907 1517.656616,688.478821 
	C1517.655396,685.221619 1517.656494,681.964417 1517.656494,677.673706 
	C1503.625488,677.673706 1490.400879,677.511230 1477.182495,677.728821 
	C1467.815918,677.882935 1460.603027,674.008179 1454.548950,667.205017 
	C1449.376343,661.392456 1447.613770,654.540283 1447.639160,646.967529 
	C1447.696167,629.973938 1447.656494,612.980042 1447.656494,595.986267 
	C1447.656372,553.668457 1447.595947,511.350403 1447.737915,469.033051 
	C1447.754395,464.122009 1448.205566,459.002075 1449.645264,454.347076 
	C1453.387085,442.249512 1462.339966,435.815643 1474.927368,435.699524 
	C1490.920166,435.551941 1506.915405,435.621490 1522.909424,435.674774 
	C1539.928589,435.731506 1551.472778,447.217499 1551.642700,464.440765 
	C1551.790771,479.433807 1551.673828,494.429474 1551.673828,509.423981 
	C1551.673828,550.742188 1551.673828,592.060425 1551.673828,633.378601 
	C1551.673828,636.654602 1551.673828,639.930603 1551.673828,643.763672 
	C1610.357300,643.763672 1668.473145,643.763672 1727.123535,643.763672 
	C1727.123535,562.100708 1727.123535,480.616394 1727.123535,397.673676 
	C1723.708862,397.673676 1720.197754,397.673676 1716.686646,397.673676 
	C1639.714844,397.673676 1562.743042,397.696014 1485.771240,397.617920 
	C1481.173462,397.613251 1476.519897,397.121490 1471.989624,396.311340 
	C1457.719482,393.759369 1448.538452,384.317352 1447.920044,370.005157 
	C1447.230347,354.042725 1447.226929,338.004639 1447.908447,322.041504 
	C1448.621216,305.346771 1461.188965,294.341217 1478.223267,294.336548 
	C1561.192871,294.313934 1644.164917,294.668915 1727.130249,294.074219 
	C1746.729614,293.933716 1761.605347,304.950623 1761.668335,328.523712 
	C1761.699341,340.119080 1761.673706,351.714539 1761.673706,364.326324 
	C1772.525757,364.326324 1782.747437,364.202942 1792.963623,364.385223 
	C1797.234009,364.461395 1801.543945,364.905518 1805.747681,365.668335 
	C1820.227051,368.295929 1828.792114,378.209106 1829.650757,393.079071 
	C1829.785034,395.403900 1829.673584,397.742950 1829.673584,400.075439 
	C1829.673828,473.048279 1829.673828,546.021118 1829.673828,619.991821 
z"/>
<path fill="#FDFDFD" opacity="1.000000" stroke="none" 
	d="
M1158.045410,643.662170 
	C1234.022217,643.662170 1309.008423,643.764648 1383.993774,643.556030 
	C1395.744385,643.523315 1403.928467,648.549683 1408.760498,658.633667 
	C1410.823853,662.940002 1411.539429,668.268982 1411.520020,673.127930 
	C1411.453979,689.730835 1411.435547,706.380920 1410.164917,722.918274 
	C1408.983276,738.298584 1399.866333,745.652954 1384.212524,745.660950 
	C1318.891479,745.694214 1253.570435,745.674927 1188.249390,745.674927 
	C1167.586548,745.674927 1146.923584,745.733948 1126.261108,745.656006 
	C1110.128174,745.595154 1100.364380,736.224304 1099.409668,720.027344 
	C1098.981323,712.760986 1098.543701,705.490295 1098.364014,698.215332 
	C1098.185303,690.975464 1098.324951,683.727783 1098.324951,675.674866 
	C1084.577271,675.674866 1071.668579,675.638306 1058.760010,675.687927 
	C1050.393677,675.720032 1043.347900,673.058899 1037.332642,666.956238 
	C1031.107666,660.640808 1030.437500,652.826660 1030.386353,644.870911 
	C1030.221558,619.210083 1030.324829,593.547607 1030.324829,567.885742 
	C1030.324829,510.563202 1030.342041,453.240662 1030.310791,395.918121 
	C1030.304443,384.292358 1033.068237,373.757965 1044.240479,368.252350 
	C1049.362915,365.728027 1055.609863,364.762695 1061.412231,364.492065 
	C1073.326904,363.936310 1085.285645,364.325134 1098.324951,364.325134 
	C1098.324951,357.575439 1098.165283,351.351746 1098.362305,345.139404 
	C1098.656128,335.877228 1098.738281,326.572083 1099.749023,317.377411 
	C1101.243164,303.784607 1111.579712,294.796661 1125.260132,294.335022 
	C1127.257446,294.267609 1129.258911,294.325134 1131.258545,294.325134 
	C1213.909668,294.325104 1296.560791,294.324799 1379.211914,294.325378 
	C1400.416626,294.325531 1409.753906,301.483063 1411.232056,322.393127 
	C1412.421143,339.214478 1411.070312,356.246368 1410.346802,373.163483 
	C1409.570435,391.316742 1397.154175,396.273285 1383.238525,397.636932 
	C1380.927612,397.863434 1378.575806,397.674591 1376.242920,397.674622 
	C1298.590820,397.674896 1220.938843,397.674866 1143.286743,397.674866 
	C1140.006470,397.674866 1136.726196,397.674866 1132.897217,397.674866 
	C1132.897217,479.803253 1132.897217,561.238647 1132.897217,643.662170 
	C1141.233765,643.662170 1149.144165,643.662170 1158.045410,643.662170 
z"/>
<path fill="#FDFDFD" opacity="1.000000" stroke="none" 
	d="
M3463.832520,467.675934 
	C3452.894043,467.675934 3442.928955,467.675934 3432.322754,467.675934 
	C3432.322754,503.162842 3432.322754,538.254150 3432.322754,574.323975 
	C3445.266357,574.323975 3458.157227,574.308533 3471.048096,574.327576 
	C3490.262695,574.356018 3502.173584,586.059570 3502.325439,605.196777 
	C3502.428711,618.169006 3502.345459,631.142822 3502.345459,645.375000 
	C3505.917725,645.478027 3509.091309,645.637573 3512.265381,645.648438 
	C3522.263428,645.682678 3532.322754,646.360779 3542.245117,645.493835 
	C3556.395508,644.257446 3568.833008,656.079651 3569.489258,669.050781 
	C3570.395996,686.972900 3570.717773,705.048035 3569.417725,722.921448 
	C3568.271484,738.677734 3556.802734,747.552185 3540.973877,747.656677 
	C3526.977295,747.749023 3512.928955,746.927673 3498.995117,747.866516 
	C3481.788818,749.025818 3468.619141,735.350281 3468.355713,717.281067 
	C3468.185547,705.619141 3468.325195,693.952698 3468.308838,682.288269 
	C3468.307129,681.031738 3468.190430,679.775330 3468.084229,677.675964 
	C3455.632568,677.675964 3443.727539,677.799316 3431.826172,677.635010 
	C3423.068115,677.514099 3414.730957,676.013123 3407.991211,669.541077 
	C3401.654297,663.456604 3398.244141,656.290955 3398.301270,647.435303 
	C3398.386963,634.136108 3398.323730,620.835876 3398.323730,606.941345 
	C3386.317139,606.941345 3374.867676,606.941345 3362.345459,606.941345 
	C3362.345459,619.803955 3361.562988,632.427673 3362.523682,644.917358 
	C3364.075195,665.089722 3347.917725,678.096924 3329.604248,677.723511 
	C3317.334717,677.473267 3305.056152,677.675964 3291.676270,677.675964 
	C3291.676270,691.108887 3292.195068,704.009827 3291.448486,716.837158 
	C3291.096191,722.887878 3289.230957,729.272522 3286.429932,734.663391 
	C3281.799316,743.574890 3273.638428,747.738953 3263.432617,747.694031 
	C3247.769287,747.625183 3232.085205,747.180115 3216.447266,747.814819 
	C3200.671143,748.455261 3188.387207,735.115723 3187.892334,721.568909 
	C3187.271973,704.600342 3187.556885,687.584595 3187.915771,670.599060 
	C3188.182373,657.994629 3200.875977,644.895813 3215.248047,645.524292 
	C3228.882812,646.120544 3242.567871,645.582458 3256.230713,645.516541 
	C3256.505127,645.515198 3256.777832,645.187317 3258.323486,644.195801 
	C3258.323486,639.532104 3258.323242,633.995178 3258.323486,628.458313 
	C3258.323730,620.459839 3258.134033,612.455872 3258.363281,604.463989 
	C3258.906250,585.545410 3274.270508,573.313599 3289.808350,574.186096 
	C3302.039795,574.872864 3314.340576,574.324036 3327.127441,574.324036 
	C3327.127441,538.734192 3327.127441,503.898163 3327.127441,467.675934 
	C3320.634277,467.675934 3314.112549,467.675934 3307.590576,467.675934 
	C3301.258545,467.675934 3294.926025,467.710663 3288.594238,467.669281 
	C3270.586670,467.551636 3258.814697,456.130219 3258.383789,437.883362 
	C3258.077881,424.923950 3258.324463,411.951477 3258.324463,397.675934 
	C3247.799805,397.675934 3237.610840,397.827942 3227.429199,397.615692 
	C3221.823975,397.498871 3216.118408,397.324036 3210.655762,396.208069 
	C3196.633545,393.343506 3187.938721,382.932343 3187.712646,368.849365 
	C3187.466309,353.522919 3187.400635,338.183990 3187.727295,322.860535 
	C3188.084229,306.107025 3200.368896,294.434174 3217.249268,294.341370 
	C3232.246094,294.258942 3247.244385,294.237549 3262.240479,294.347443 
	C3278.508301,294.466644 3291.263428,306.880310 3291.617188,323.219055 
	C3291.905029,336.503052 3291.675781,349.798279 3291.675781,364.324066 
	C3296.283447,364.324066 3300.484619,364.207062 3304.677246,364.346619 
	C3315.945068,364.721649 3327.328125,364.335907 3338.445801,365.858368 
	C3353.824707,367.964325 3362.208984,378.635406 3362.325195,394.163330 
	C3362.422363,407.107910 3362.345459,420.053772 3362.345459,433.656952 
	C3374.375000,433.656952 3385.815674,433.656952 3398.323730,433.656952 
	C3398.323730,420.831848 3398.469971,407.948059 3398.280029,395.069244 
	C3398.112793,383.724274 3403.152832,375.310852 3412.201172,369.044678 
	C3418.210693,364.883087 3425.223145,364.414856 3432.218994,364.352386 
	C3443.842041,364.248596 3455.466797,364.324097 3468.323730,364.324097 
	C3468.323730,351.712189 3468.223389,339.517181 3468.381348,327.325500 
	C3468.432373,323.389740 3468.651855,319.324554 3469.673096,315.556793 
	C3473.307129,302.151459 3483.431641,294.469757 3497.366455,294.351959 
	C3512.029297,294.227966 3526.694824,294.230438 3541.357666,294.349518 
	C3557.163086,294.477875 3568.785156,304.606812 3569.667969,320.467865 
	C3570.573486,336.737457 3570.728027,353.116791 3569.982910,369.391846 
	C3569.183350,386.858215 3557.373779,397.075409 3538.955811,397.628448 
	C3529.965576,397.898407 3520.960449,397.643066 3511.962402,397.694702 
	C3509.041992,397.711456 3506.122803,397.948029 3502.345215,398.124023 
	C3502.345215,411.519592 3502.348633,424.433960 3502.343506,437.348328 
	C3502.341064,443.048431 3501.628906,448.445374 3498.471680,453.538605 
	C3492.721680,462.814362 3484.722656,467.669128 3473.802002,467.675568 
	C3470.803467,467.677338 3467.804688,467.675903 3463.832520,467.675934 
z"/>
<path fill="#FDFDFD" opacity="1.000000" stroke="none" 
	d="
M1970.343994,532.000183 
	C1970.343994,594.322571 1970.284058,655.645020 1970.411011,716.967102 
	C1970.429321,725.810608 1967.981934,733.224243 1961.342407,739.251221 
	C1956.183960,743.933777 1950.444946,746.482178 1943.337402,746.395935 
	C1927.675903,746.205688 1911.956665,745.533936 1896.362671,746.577698 
	C1882.572998,747.500671 1867.937500,737.574951 1866.350830,718.513428 
	C1866.213013,716.858276 1866.326050,715.182190 1866.326050,713.515808 
	C1866.325684,584.872192 1866.363892,456.228607 1866.271118,327.585083 
	C1866.261108,313.745483 1870.915771,302.866455 1883.933960,296.902496 
	C1887.424805,295.303192 1891.564941,294.507172 1895.426392,294.438354 
	C1910.752197,294.165192 1926.089722,294.549866 1941.414917,294.263702 
	C1957.119019,293.970490 1971.080444,308.148285 1970.456177,323.430023 
	C1969.915405,336.669983 1970.343872,349.949493 1970.343872,363.761475 
	C1982.548950,363.761475 1993.996094,363.761475 2006.325806,363.761475 
	C2006.325806,351.955933 2006.048218,340.375092 2006.419800,328.815063 
	C2006.684326,320.586578 2007.091431,312.285889 2012.857422,305.348694 
	C2018.492676,298.568970 2025.489746,294.445953 2034.209351,294.404968 
	C2072.868164,294.223389 2111.529053,294.218262 2150.187988,294.380585 
	C2165.055420,294.442993 2177.112549,304.168610 2178.062500,318.814606 
	C2179.238281,336.940308 2179.049316,355.237732 2178.092285,373.389374 
	C2177.455811,385.458649 2168.134033,394.195404 2156.434326,396.128540 
	C2150.905518,397.042084 2145.250977,397.580353 2139.650146,397.607544 
	C2110.322754,397.750000 2080.994141,397.674133 2051.666016,397.674103 
	C2048.347656,397.674103 2045.029297,397.674103 2040.973755,397.674103 
	C2040.744019,400.582733 2040.386230,403.113953 2040.371338,405.647156 
	C2040.306519,416.644806 2040.622559,427.651917 2040.276489,438.639069 
	C2039.715942,456.437164 2028.036865,467.584290 2010.297241,467.662842 
	C1997.347778,467.720215 1984.397827,467.674103 1970.343994,467.674103 
	C1970.343994,489.223419 1970.343994,510.111755 1970.343994,532.000183 
z"/>
<path fill="#FDFDFD" opacity="1.000000" stroke="none" 
	d="
M504.330933,746.335266 
	C484.534241,749.110535 472.126343,731.985962 472.182251,713.572754 
	C472.487762,612.989014 472.327759,512.403870 472.327759,411.819244 
	C472.327759,383.175934 472.325470,354.532623 472.328796,325.889313 
	C472.330383,312.335144 478.122528,302.233551 490.566498,296.560974 
	C493.764954,295.102936 497.588196,294.480743 501.139374,294.424774 
	C515.790405,294.193665 530.464050,294.767517 545.097473,294.208801 
	C560.932373,293.604218 573.054932,307.207489 573.936279,320.152924 
	C574.161987,323.468475 574.325378,326.795990 574.325867,330.118042 
	C574.345215,457.014557 574.347839,583.911072 574.316345,710.807617 
	C574.315369,714.790466 574.254517,718.821411 573.668091,722.747253 
	C571.518311,737.138184 560.845703,746.254089 546.247192,746.321655 
	C532.591980,746.384888 518.936218,746.335205 504.330933,746.335266 
z"/>
<path fill="#FDFDFD" opacity="1.000000" stroke="none" 
	d="
M572.885742,174.093079 
	C573.445679,193.771225 573.948853,212.697922 573.715454,231.615524 
	C573.564636,243.839096 559.143372,257.458069 546.191162,256.561401 
	C531.953247,255.575760 517.519836,255.425369 503.308838,256.588287 
	C488.539185,257.796967 473.002319,246.300003 472.424713,227.357224 
	C471.968628,212.399597 471.783997,197.391602 472.472534,182.451782 
	C473.339691,163.637100 488.300690,152.697144 502.785522,153.501633 
	C516.384338,154.256927 530.064880,153.934448 543.696899,153.589432 
	C558.263916,153.220718 567.401855,160.201218 572.885742,174.093079 
z"/>
<path fill="#FEFEFE" opacity="1.000000" stroke="none" 
	d="
M2709.259033,746.332947 
	C2692.343018,746.333374 2676.343262,746.445007 2660.345947,746.300659 
	C2645.456787,746.166321 2633.968262,734.847046 2633.718750,719.826904 
	C2633.458740,704.165894 2633.529541,688.495850 2633.700195,672.832336 
	C2633.848877,659.198120 2642.648682,647.573242 2656.198242,646.681519 
	C2675.416260,645.416565 2694.834473,645.510620 2714.064209,646.695190 
	C2727.326416,647.512146 2734.134521,656.821289 2734.295166,670.669800 
	C2734.484619,686.999512 2734.461426,703.334351 2734.303955,719.664734 
	C2734.161133,734.443848 2725.204590,744.178833 2709.259033,746.332947 
z"/>
</svg>